<?xml version='1.0' encoding='UTF-8'?>
<svg width="35mm" height="35mm" version="1.1" viewBox="0 0 35 35" xmlns="http://www.w3.org/2000/svg"><path d="M1,1H2V2H1zM2,1H3V2H2zM3,1H4V2H3zM4,1H5V2H4zM5,1H6V2H5zM6,1H7V2H6zM7,1H8V2H7zM15,1H16V2H15zM16,1H17V2H16zM20,1H21V2H20zM23,1H24V2H23zM24,1H25V2H24zM27,1H28V2H27zM28,1H29V2H28zM29,1H30V2H29zM30,1H31V2H30zM31,1H32V2H31zM32,1H33V2H32zM33,1H34V2H33zM1,2H2V3H1zM7,2H8V3H7zM10,2H11V3H10zM12,2H13V3H12zM16,2H17V3H16zM17,2H18V3H17zM18,2H19V3H18zM21,2H22V3H21zM22,2H23V3H22zM23,2H24V3H23zM24,2H25V3H24zM25,2H26V3H25zM27,2H28V3H27zM33,2H34V3H33zM1,3H2V4H1zM3,3H4V4H3zM4,3H5V4H4zM5,3H6V4H5zM7,3H8V4H7zM10,3H11V4H10zM11,3H12V4H11zM15,3H16V4H15zM18,3H19V4H18zM23,3H24V4H23zM24,3H25V4H24zM27,3H28V4H27zM29,3H30V4H29zM30,3H31V4H30zM31,3H32V4H31zM33,3H34V4H33zM1,4H2V5H1zM3,4H4V5H3zM4,4H5V5H4zM5,4H6V5H5zM7,4H8V5H7zM11,4H12V5H11zM13,4H14V5H13zM14,4H15V5H14zM18,4H19V5H18zM20,4H21V5H20zM23,4H24V5H23zM24,4H25V5H24zM25,4H26V5H25zM27,4H28V5H27zM29,4H30V5H29zM30,4H31V5H30zM31,4H32V5H31zM33,4H34V5H33zM1,5H2V6H1zM3,5H4V6H3zM4,5H5V6H4zM5,5H6V6H5zM7,5H8V6H7zM11,5H12V6H11zM12,5H13V6H12zM13,5H14V6H13zM17,5H18V6H17zM20,5H21V6H20zM24,5H25V6H24zM27,5H28V6H27zM29,5H30V6H29zM30,5H31V6H30zM31,5H32V6H31zM33,5H34V6H33zM1,6H2V7H1zM7,6H8V7H7zM9,6H10V7H9zM11,6H12V7H11zM13,6H14V7H13zM18,6H19V7H18zM21,6H22V7H21zM25,6H26V7H25zM27,6H28V7H27zM33,6H34V7H33zM1,7H2V8H1zM2,7H3V8H2zM3,7H4V8H3zM4,7H5V8H4zM5,7H6V8H5zM6,7H7V8H6zM7,7H8V8H7zM9,7H10V8H9zM11,7H12V8H11zM13,7H14V8H13zM15,7H16V8H15zM17,7H18V8H17zM19,7H20V8H19zM21,7H22V8H21zM23,7H24V8H23zM25,7H26V8H25zM27,7H28V8H27zM28,7H29V8H28zM29,7H30V8H29zM30,7H31V8H30zM31,7H32V8H31zM32,7H33V8H32zM33,7H34V8H33zM10,8H11V9H10zM11,8H12V9H11zM12,8H13V9H12zM15,8H16V9H15zM18,8H19V9H18zM20,8H21V9H20zM21,8H22V9H21zM22,8H23V9H22zM23,8H24V9H23zM1,9H2V10H1zM4,9H5V10H4zM6,9H7V10H6zM7,9H8V10H7zM9,9H10V10H9zM11,9H12V10H11zM13,9H14V10H13zM14,9H15V10H14zM15,9H16V10H15zM16,9H17V10H16zM17,9H18V10H17zM20,9H21V10H20zM22,9H23V10H22zM23,9H24V10H23zM24,9H25V10H24zM26,9H27V10H26zM28,9H29V10H28zM2,10H3V11H2zM3,10H4V11H3zM4,10H5V11H4zM8,10H9V11H8zM11,10H12V11H11zM12,10H13V11H12zM15,10H16V11H15zM17,10H18V11H17zM19,10H20V11H19zM21,10H22V11H21zM22,10H23V11H22zM25,10H26V11H25zM26,10H27V11H26zM27,10H28V11H27zM28,10H29V11H28zM33,10H34V11H33zM5,11H6V12H5zM6,11H7V12H6zM7,11H8V12H7zM10,11H11V12H10zM11,11H12V12H11zM13,11H14V12H13zM17,11H18V12H17zM18,11H19V12H18zM20,11H21V12H20zM21,11H22V12H21zM23,11H24V12H23zM25,11H26V12H25zM26,11H27V12H26zM28,11H29V12H28zM29,11H30V12H29zM31,11H32V12H31zM33,11H34V12H33zM2,12H3V13H2zM5,12H6V13H5zM10,12H11V13H10zM11,12H12V13H11zM13,12H14V13H13zM15,12H16V13H15zM16,12H17V13H16zM17,12H18V13H17zM18,12H19V13H18zM21,12H22V13H21zM22,12H23V13H22zM23,12H24V13H23zM26,12H27V13H26zM29,12H30V13H29zM30,12H31V13H30zM32,12H33V13H32zM1,13H2V14H1zM2,13H3V14H2zM3,13H4V14H3zM4,13H5V14H4zM7,13H8V14H7zM8,13H9V14H8zM13,13H14V14H13zM20,13H21V14H20zM22,13H23V14H22zM24,13H25V14H24zM26,13H27V14H26zM27,13H28V14H27zM28,13H29V14H28zM30,13H31V14H30zM33,13H34V14H33zM2,14H3V15H2zM6,14H7V15H6zM8,14H9V15H8zM9,14H10V15H9zM12,14H13V15H12zM16,14H17V15H16zM17,14H18V15H17zM18,14H19V15H18zM23,14H24V15H23zM25,14H26V15H25zM27,14H28V15H27zM29,14H30V15H29zM30,14H31V15H30zM32,14H33V15H32zM33,14H34V15H33zM4,15H5V16H4zM5,15H6V16H5zM6,15H7V16H6zM7,15H8V16H7zM8,15H9V16H8zM9,15H10V16H9zM14,15H15V16H14zM15,15H16V16H15zM19,15H20V16H19zM21,15H22V16H21zM22,15H23V16H22zM24,15H25V16H24zM26,15H27V16H26zM27,15H28V16H27zM28,15H29V16H28zM32,15H33V16H32zM1,16H2V17H1zM3,16H4V17H3zM4,16H5V17H4zM8,16H9V17H8zM10,16H11V17H10zM11,16H12V17H11zM12,16H13V17H12zM13,16H14V17H13zM14,16H15V17H14zM16,16H17V17H16zM18,16H19V17H18zM20,16H21V17H20zM22,16H23V17H22zM24,16H25V17H24zM25,16H26V17H25zM27,16H28V17H27zM29,16H30V17H29zM30,16H31V17H30zM32,16H33V17H32zM6,17H7V18H6zM7,17H8V18H7zM8,17H9V18H8zM9,17H10V18H9zM11,17H12V18H11zM12,17H13V18H12zM14,17H15V18H14zM18,17H19V18H18zM19,17H20V18H19zM20,17H21V18H20zM22,17H23V18H22zM23,17H24V18H23zM24,17H25V18H24zM25,17H26V18H25zM27,17H28V18H27zM29,17H30V18H29zM32,17H33V18H32zM1,18H2V19H1zM2,18H3V19H2zM5,18H6V19H5zM6,18H7V19H6zM9,18H10V19H9zM12,18H13V19H12zM14,18H15V19H14zM17,18H18V19H17zM22,18H23V19H22zM24,18H25V19H24zM25,18H26V19H25zM26,18H27V19H26zM28,18H29V19H28zM30,18H31V19H30zM1,19H2V20H1zM3,19H4V20H3zM7,19H8V20H7zM11,19H12V20H11zM13,19H14V20H13zM17,19H18V20H17zM19,19H20V20H19zM22,19H23V20H22zM23,19H24V20H23zM25,19H26V20H25zM27,19H28V20H27zM31,19H32V20H31zM32,19H33V20H32zM33,19H34V20H33zM1,20H2V21H1zM2,20H3V21H2zM4,20H5V21H4zM5,20H6V21H5zM6,20H7V21H6zM10,20H11V21H10zM15,20H16V21H15zM18,20H19V21H18zM19,20H20V21H19zM20,20H21V21H20zM21,20H22V21H21zM22,20H23V21H22zM24,20H25V21H24zM25,20H26V21H25zM26,20H27V21H26zM28,20H29V21H28zM32,20H33V21H32zM1,21H2V22H1zM3,21H4V22H3zM4,21H5V22H4zM5,21H6V22H5zM7,21H8V22H7zM9,21H10V22H9zM13,21H14V22H13zM14,21H15V22H14zM17,21H18V22H17zM18,21H19V22H18zM19,21H20V22H19zM20,21H21V22H20zM23,21H24V22H23zM24,21H25V22H24zM25,21H26V22H25zM26,21H27V22H26zM32,21H33V22H32zM2,22H3V23H2zM4,22H5V23H4zM6,22H7V23H6zM8,22H9V23H8zM9,22H10V23H9zM11,22H12V23H11zM15,22H16V23H15zM16,22H17V23H16zM17,22H18V23H17zM19,22H20V23H19zM20,22H21V23H20zM21,22H22V23H21zM22,22H23V23H22zM27,22H28V23H27zM31,22H32V23H31zM32,22H33V23H32zM33,22H34V23H33zM1,23H2V24H1zM2,23H3V24H2zM3,23H4V24H3zM4,23H5V24H4zM5,23H6V24H5zM7,23H8V24H7zM8,23H9V24H8zM10,23H11V24H10zM11,23H12V24H11zM16,23H17V24H16zM21,23H22V24H21zM22,23H23V24H22zM25,23H26V24H25zM27,23H28V24H27zM28,23H29V24H28zM30,23H31V24H30zM33,23H34V24H33zM2,24H3V25H2zM10,24H11V25H10zM13,24H14V25H13zM17,24H18V25H17zM19,24H20V25H19zM22,24H23V25H22zM23,24H24V25H23zM24,24H25V25H24zM30,24H31V25H30zM1,25H2V26H1zM4,25H5V26H4zM5,25H6V26H5zM7,25H8V26H7zM8,25H9V26H8zM9,25H10V26H9zM10,25H11V26H10zM12,25H13V26H12zM13,25H14V26H13zM15,25H16V26H15zM16,25H17V26H16zM18,25H19V26H18zM20,25H21V26H20zM21,25H22V26H21zM22,25H23V26H22zM25,25H26V26H25zM26,25H27V26H26zM27,25H28V26H27zM28,25H29V26H28zM29,25H30V26H29zM32,25H33V26H32zM9,26H10V27H9zM10,26H11V27H10zM11,26H12V27H11zM12,26H13V27H12zM13,26H14V27H13zM15,26H16V27H15zM20,26H21V27H20zM23,26H24V27H23zM25,26H26V27H25zM29,26H30V27H29zM30,26H31V27H30zM33,26H34V27H33zM1,27H2V28H1zM2,27H3V28H2zM3,27H4V28H3zM4,27H5V28H4zM5,27H6V28H5zM6,27H7V28H6zM7,27H8V28H7zM12,27H13V28H12zM13,27H14V28H13zM14,27H15V28H14zM21,27H22V28H21zM22,27H23V28H22zM25,27H26V28H25zM27,27H28V28H27zM29,27H30V28H29zM30,27H31V28H30zM31,27H32V28H31zM32,27H33V28H32zM1,28H2V29H1zM7,28H8V29H7zM9,28H10V29H9zM13,28H14V29H13zM14,28H15V29H14zM16,28H17V29H16zM17,28H18V29H17zM20,28H21V29H20zM21,28H22V29H21zM25,28H26V29H25zM29,28H30V29H29zM32,28H33V29H32zM1,29H2V30H1zM3,29H4V30H3zM4,29H5V30H4zM5,29H6V30H5zM7,29H8V30H7zM10,29H11V30H10zM13,29H14V30H13zM17,29H18V30H17zM23,29H24V30H23zM25,29H26V30H25zM26,29H27V30H26zM27,29H28V30H27zM28,29H29V30H28zM29,29H30V30H29zM30,29H31V30H30zM32,29H33V30H32zM33,29H34V30H33zM1,30H2V31H1zM3,30H4V31H3zM4,30H5V31H4zM5,30H6V31H5zM7,30H8V31H7zM9,30H10V31H9zM11,30H12V31H11zM13,30H14V31H13zM14,30H15V31H14zM16,30H17V31H16zM20,30H21V31H20zM21,30H22V31H21zM24,30H25V31H24zM27,30H28V31H27zM29,30H30V31H29zM30,30H31V31H30zM32,30H33V31H32zM1,31H2V32H1zM3,31H4V32H3zM4,31H5V32H4zM5,31H6V32H5zM7,31H8V32H7zM11,31H12V32H11zM14,31H15V32H14zM15,31H16V32H15zM22,31H23V32H22zM29,31H30V32H29zM30,31H31V32H30zM33,31H34V32H33zM1,32H2V33H1zM7,32H8V33H7zM10,32H11V33H10zM11,32H12V33H11zM12,32H13V33H12zM13,32H14V33H13zM16,32H17V33H16zM17,32H18V33H17zM18,32H19V33H18zM22,32H23V33H22zM25,32H26V33H25zM1,33H2V34H1zM2,33H3V34H2zM3,33H4V34H3zM4,33H5V34H4zM5,33H6V34H5zM6,33H7V34H6zM7,33H8V34H7zM9,33H10V34H9zM10,33H11V34H10zM12,33H13V34H12zM13,33H14V34H13zM14,33H15V34H14zM17,33H18V34H17zM22,33H23V34H22zM25,33H26V34H25zM27,33H28V34H27zM29,33H30V34H29zM30,33H31V34H30zM32,33H33V34H32z" id="qr-path" fill="#000000" fill-opacity="1" fill-rule="nonzero" stroke="none" /></svg>