<?xml version='1.0' encoding='UTF-8'?>
<svg width="35mm" height="35mm" version="1.1" viewBox="0 0 35 35" xmlns="http://www.w3.org/2000/svg"><path d="M1,1H2V2H1zM2,1H3V2H2zM3,1H4V2H3zM4,1H5V2H4zM5,1H6V2H5zM6,1H7V2H6zM7,1H8V2H7zM11,1H12V2H11zM12,1H13V2H12zM13,1H14V2H13zM15,1H16V2H15zM17,1H18V2H17zM19,1H20V2H19zM20,1H21V2H20zM22,1H23V2H22zM24,1H25V2H24zM27,1H28V2H27zM28,1H29V2H28zM29,1H30V2H29zM30,1H31V2H30zM31,1H32V2H31zM32,1H33V2H32zM33,1H34V2H33zM1,2H2V3H1zM7,2H8V3H7zM10,2H11V3H10zM12,2H13V3H12zM13,2H14V3H13zM16,2H17V3H16zM17,2H18V3H17zM19,2H20V3H19zM21,2H22V3H21zM22,2H23V3H22zM27,2H28V3H27zM33,2H34V3H33zM1,3H2V4H1zM3,3H4V4H3zM4,3H5V4H4zM5,3H6V4H5zM7,3H8V4H7zM9,3H10V4H9zM10,3H11V4H10zM11,3H12V4H11zM12,3H13V4H12zM15,3H16V4H15zM16,3H17V4H16zM17,3H18V4H17zM21,3H22V4H21zM22,3H23V4H22zM23,3H24V4H23zM27,3H28V4H27zM29,3H30V4H29zM30,3H31V4H30zM31,3H32V4H31zM33,3H34V4H33zM1,4H2V5H1zM3,4H4V5H3zM4,4H5V5H4zM5,4H6V5H5zM7,4H8V5H7zM9,4H10V5H9zM13,4H14V5H13zM16,4H17V5H16zM19,4H20V5H19zM22,4H23V5H22zM24,4H25V5H24zM25,4H26V5H25zM27,4H28V5H27zM29,4H30V5H29zM30,4H31V5H30zM31,4H32V5H31zM33,4H34V5H33zM1,5H2V6H1zM3,5H4V6H3zM4,5H5V6H4zM5,5H6V6H5zM7,5H8V6H7zM9,5H10V6H9zM11,5H12V6H11zM15,5H16V6H15zM16,5H17V6H16zM17,5H18V6H17zM18,5H19V6H18zM21,5H22V6H21zM22,5H23V6H22zM23,5H24V6H23zM27,5H28V6H27zM29,5H30V6H29zM30,5H31V6H30zM31,5H32V6H31zM33,5H34V6H33zM1,6H2V7H1zM7,6H8V7H7zM9,6H10V7H9zM10,6H11V7H10zM12,6H13V7H12zM14,6H15V7H14zM18,6H19V7H18zM20,6H21V7H20zM22,6H23V7H22zM24,6H25V7H24zM25,6H26V7H25zM27,6H28V7H27zM33,6H34V7H33zM1,7H2V8H1zM2,7H3V8H2zM3,7H4V8H3zM4,7H5V8H4zM5,7H6V8H5zM6,7H7V8H6zM7,7H8V8H7zM9,7H10V8H9zM11,7H12V8H11zM13,7H14V8H13zM15,7H16V8H15zM17,7H18V8H17zM19,7H20V8H19zM21,7H22V8H21zM23,7H24V8H23zM25,7H26V8H25zM27,7H28V8H27zM28,7H29V8H28zM29,7H30V8H29zM30,7H31V8H30zM31,7H32V8H31zM32,7H33V8H32zM33,7H34V8H33zM9,8H10V9H9zM15,8H16V9H15zM17,8H18V9H17zM19,8H20V9H19zM20,8H21V9H20zM21,8H22V9H21zM22,8H23V9H22zM23,8H24V9H23zM24,8H25V9H24zM1,9H2V10H1zM3,9H4V10H3zM4,9H5V10H4zM5,9H6V10H5zM6,9H7V10H6zM7,9H8V10H7zM11,9H12V10H11zM14,9H15V10H14zM18,9H19V10H18zM20,9H21V10H20zM23,9H24V10H23zM24,9H25V10H24zM25,9H26V10H25zM27,9H28V10H27zM28,9H29V10H28zM29,9H30V10H29zM30,9H31V10H30zM31,9H32V10H31zM1,10H2V11H1zM3,10H4V11H3zM8,10H9V11H8zM14,10H15V11H14zM17,10H18V11H17zM18,10H19V11H18zM19,10H20V11H19zM20,10H21V11H20zM21,10H22V11H21zM23,10H24V11H23zM24,10H25V11H24zM25,10H26V11H25zM27,10H28V11H27zM28,10H29V11H28zM30,10H31V11H30zM31,10H32V11H31zM32,10H33V11H32zM33,10H34V11H33zM2,11H3V12H2zM3,11H4V12H3zM4,11H5V12H4zM5,11H6V12H5zM6,11H7V12H6zM7,11H8V12H7zM9,11H10V12H9zM10,11H11V12H10zM11,11H12V12H11zM12,11H13V12H12zM14,11H15V12H14zM15,11H16V12H15zM16,11H17V12H16zM18,11H19V12H18zM23,11H24V12H23zM25,11H26V12H25zM29,11H30V12H29zM31,11H32V12H31zM32,11H33V12H32zM4,12H5V13H4zM5,12H6V13H5zM8,12H9V13H8zM11,12H12V13H11zM13,12H14V13H13zM14,12H15V13H14zM17,12H18V13H17zM18,12H19V13H18zM19,12H20V13H19zM21,12H22V13H21zM24,12H25V13H24zM25,12H26V13H25zM27,12H28V13H27zM29,12H30V13H29zM30,12H31V13H30zM31,12H32V13H31zM32,12H33V13H32zM6,13H7V14H6zM7,13H8V14H7zM8,13H9V14H8zM9,13H10V14H9zM10,13H11V14H10zM12,13H13V14H12zM13,13H14V14H13zM15,13H16V14H15zM17,13H18V14H17zM20,13H21V14H20zM21,13H22V14H21zM22,13H23V14H22zM23,13H24V14H23zM25,13H26V14H25zM26,13H27V14H26zM29,13H30V14H29zM30,13H31V14H30zM32,13H33V14H32zM2,14H3V15H2zM3,14H4V15H3zM4,14H5V15H4zM5,14H6V15H5zM6,14H7V15H6zM9,14H10V15H9zM16,14H17V15H16zM18,14H19V15H18zM19,14H20V15H19zM22,14H23V15H22zM25,14H26V15H25zM27,14H28V15H27zM30,14H31V15H30zM31,14H32V15H31zM32,14H33V15H32zM33,14H34V15H33zM4,15H5V16H4zM5,15H6V16H5zM6,15H7V16H6zM7,15H8V16H7zM8,15H9V16H8zM10,15H11V16H10zM11,15H12V16H11zM12,15H13V16H12zM14,15H15V16H14zM16,15H17V16H16zM17,15H18V16H17zM21,15H22V16H21zM22,15H23V16H22zM23,15H24V16H23zM26,15H27V16H26zM27,15H28V16H27zM32,15H33V16H32zM1,16H2V17H1zM5,16H6V17H5zM6,16H7V17H6zM9,16H10V17H9zM11,16H12V17H11zM16,16H17V17H16zM22,16H23V17H22zM24,16H25V17H24zM26,16H27V17H26zM27,16H28V17H27zM28,16H29V17H28zM31,16H32V17H31zM3,17H4V18H3zM5,17H6V18H5zM7,17H8V18H7zM8,17H9V18H8zM12,17H13V18H12zM13,17H14V18H13zM14,17H15V18H14zM16,17H17V18H16zM18,17H19V18H18zM26,17H27V18H26zM28,17H29V18H28zM29,17H30V18H29zM33,17H34V18H33zM1,18H2V19H1zM2,18H3V19H2zM4,18H5V19H4zM5,18H6V19H5zM6,18H7V19H6zM8,18H9V19H8zM11,18H12V19H11zM12,18H13V19H12zM13,18H14V19H13zM14,18H15V19H14zM17,18H18V19H17zM19,18H20V19H19zM20,18H21V19H20zM21,18H22V19H21zM22,18H23V19H22zM24,18H25V19H24zM26,18H27V19H26zM27,18H28V19H27zM28,18H29V19H28zM30,18H31V19H30zM31,18H32V19H31zM33,18H34V19H33zM1,19H2V20H1zM2,19H3V20H2zM3,19H4V20H3zM4,19H5V20H4zM5,19H6V20H5zM7,19H8V20H7zM11,19H12V20H11zM12,19H13V20H12zM13,19H14V20H13zM15,19H16V20H15zM16,19H17V20H16zM17,19H18V20H17zM19,19H20V20H19zM21,19H22V20H21zM22,19H23V20H22zM25,19H26V20H25zM26,19H27V20H26zM28,19H29V20H28zM29,19H30V20H29zM31,19H32V20H31zM32,19H33V20H32zM2,20H3V21H2zM3,20H4V21H3zM4,20H5V21H4zM10,20H11V21H10zM13,20H14V21H13zM17,20H18V21H17zM22,20H23V21H22zM23,20H24V21H23zM24,20H25V21H24zM25,20H26V21H25zM28,20H29V21H28zM29,20H30V21H29zM30,20H31V21H30zM31,20H32V21H31zM1,21H2V22H1zM2,21H3V22H2zM5,21H6V22H5zM6,21H7V22H6zM7,21H8V22H7zM11,21H12V22H11zM13,21H14V22H13zM14,21H15V22H14zM19,21H20V22H19zM22,21H23V22H22zM25,21H26V22H25zM26,21H27V22H26zM28,21H29V22H28zM29,21H30V22H29zM30,21H31V22H30zM32,21H33V22H32zM1,22H2V23H1zM5,22H6V23H5zM6,22H7V23H6zM8,22H9V23H8zM14,22H15V23H14zM16,22H17V23H16zM17,22H18V23H17zM21,22H22V23H21zM23,22H24V23H23zM24,22H25V23H24zM27,22H28V23H27zM30,22H31V23H30zM33,22H34V23H33zM1,23H2V24H1zM4,23H5V24H4zM6,23H7V24H6zM7,23H8V24H7zM8,23H9V24H8zM9,23H10V24H9zM10,23H11V24H10zM11,23H12V24H11zM12,23H13V24H12zM13,23H14V24H13zM14,23H15V24H14zM19,23H20V24H19zM20,23H21V24H20zM22,23H23V24H22zM23,23H24V24H23zM25,23H26V24H25zM27,23H28V24H27zM28,23H29V24H28zM30,23H31V24H30zM32,23H33V24H32zM1,24H2V25H1zM5,24H6V25H5zM9,24H10V25H9zM10,24H11V25H10zM11,24H12V25H11zM14,24H15V25H14zM17,24H18V25H17zM20,24H21V25H20zM21,24H22V25H21zM22,24H23V25H22zM23,24H24V25H23zM24,24H25V25H24zM27,24H28V25H27zM28,24H29V25H28zM29,24H30V25H29zM30,24H31V25H30zM31,24H32V25H31zM32,24H33V25H32zM33,24H34V25H33zM1,25H2V26H1zM3,25H4V26H3zM5,25H6V26H5zM7,25H8V26H7zM8,25H9V26H8zM9,25H10V26H9zM11,25H12V26H11zM12,25H13V26H12zM15,25H16V26H15zM18,25H19V26H18zM20,25H21V26H20zM23,25H24V26H23zM24,25H25V26H24zM25,25H26V26H25zM26,25H27V26H26zM27,25H28V26H27zM28,25H29V26H28zM29,25H30V26H29zM30,25H31V26H30zM33,25H34V26H33zM9,26H10V27H9zM11,26H12V27H11zM13,26H14V27H13zM14,26H15V27H14zM15,26H16V27H15zM17,26H18V27H17zM18,26H19V27H18zM20,26H21V27H20zM21,26H22V27H21zM23,26H24V27H23zM24,26H25V27H24zM25,26H26V27H25zM29,26H30V27H29zM31,26H32V27H31zM33,26H34V27H33zM1,27H2V28H1zM2,27H3V28H2zM3,27H4V28H3zM4,27H5V28H4zM5,27H6V28H5zM6,27H7V28H6zM7,27H8V28H7zM12,27H13V28H12zM14,27H15V28H14zM16,27H17V28H16zM18,27H19V28H18zM21,27H22V28H21zM23,27H24V28H23zM24,27H25V28H24zM25,27H26V28H25zM27,27H28V28H27zM29,27H30V28H29zM31,27H32V28H31zM32,27H33V28H32zM1,28H2V29H1zM7,28H8V29H7zM9,28H10V29H9zM14,28H15V29H14zM18,28H19V29H18zM19,28H20V29H19zM20,28H21V29H20zM24,28H25V29H24zM25,28H26V29H25zM29,28H30V29H29zM30,28H31V29H30zM31,28H32V29H31zM33,28H34V29H33zM1,29H2V30H1zM3,29H4V30H3zM4,29H5V30H4zM5,29H6V30H5zM7,29H8V30H7zM9,29H10V30H9zM10,29H11V30H10zM14,29H15V30H14zM17,29H18V30H17zM21,29H22V30H21zM22,29H23V30H22zM23,29H24V30H23zM25,29H26V30H25zM26,29H27V30H26zM27,29H28V30H27zM28,29H29V30H28zM29,29H30V30H29zM30,29H31V30H30zM32,29H33V30H32zM33,29H34V30H33zM1,30H2V31H1zM3,30H4V31H3zM4,30H5V31H4zM5,30H6V31H5zM7,30H8V31H7zM9,30H10V31H9zM10,30H11V31H10zM13,30H14V31H13zM16,30H17V31H16zM18,30H19V31H18zM19,30H20V31H19zM22,30H23V31H22zM24,30H25V31H24zM25,30H26V31H25zM26,30H27V31H26zM29,30H30V31H29zM31,30H32V31H31zM33,30H34V31H33zM1,31H2V32H1zM3,31H4V32H3zM4,31H5V32H4zM5,31H6V32H5zM7,31H8V32H7zM9,31H10V32H9zM10,31H11V32H10zM11,31H12V32H11zM12,31H13V32H12zM16,31H17V32H16zM17,31H18V32H17zM19,31H20V32H19zM21,31H22V32H21zM25,31H26V32H25zM27,31H28V32H27zM28,31H29V32H28zM30,31H31V32H30zM1,32H2V33H1zM7,32H8V33H7zM10,32H11V33H10zM11,32H12V33H11zM12,32H13V33H12zM14,32H15V33H14zM16,32H17V33H16zM19,32H20V33H19zM22,32H23V33H22zM23,32H24V33H23zM27,32H28V33H27zM29,32H30V33H29zM30,32H31V33H30zM31,32H32V33H31zM1,33H2V34H1zM2,33H3V34H2zM3,33H4V34H3zM4,33H5V34H4zM5,33H6V34H5zM6,33H7V34H6zM7,33H8V34H7zM9,33H10V34H9zM10,33H11V34H10zM15,33H16V34H15zM16,33H17V34H16zM18,33H19V34H18zM23,33H24V34H23zM24,33H25V34H24zM25,33H26V34H25zM26,33H27V34H26zM28,33H29V34H28zM32,33H33V34H32z" id="qr-path" fill="#000000" fill-opacity="1" fill-rule="nonzero" stroke="none" /></svg>