<svg xmlns="http://www.w3.org/2000/svg" viewBox="0 0 720 450" font-family="ui-sans-serif, system-ui, sans-serif">
  <defs>
    <marker id="arrow-accent" viewBox="0 0 10 10" refX="9" refY="5" markerWidth="6" markerHeight="6" orient="auto">
      <path d="M0 0 L10 5 L0 10 z" fill="#c93d80"/>
    </marker>
  </defs>

  <!-- Left: traditional layout, every chunk is its own file -->
  <g transform="translate(30, 60)">
    <text x="120" y="-22" text-anchor="middle" font-size="13" fill="#4a4440" font-weight="700" letter-spacing="0.08em">TRADITIONAL</text>

    <g fill="white" stroke="#1a1614" stroke-width="2">
      <rect x="0"   y="0"   width="60" height="60"/>
      <rect x="60"  y="0"   width="60" height="60"/>
      <rect x="120" y="0"   width="60" height="60"/>
      <rect x="180" y="0"   width="60" height="60"/>
      <rect x="0"   y="60"  width="60" height="60"/>
      <rect x="60"  y="60"  width="60" height="60"/>
      <rect x="120" y="60"  width="60" height="60"/>
      <rect x="180" y="60"  width="60" height="60"/>
      <rect x="0"   y="120" width="60" height="60"/>
      <rect x="60"  y="120" width="60" height="60"/>
      <rect x="120" y="120" width="60" height="60"/>
      <rect x="180" y="120" width="60" height="60"/>
      <rect x="0"   y="180" width="60" height="60"/>
      <rect x="60"  y="180" width="60" height="60"/>
      <rect x="120" y="180" width="60" height="60"/>
      <rect x="180" y="180" width="60" height="60"/>
    </g>

    <!-- Highlight chunk c/2/3 to mirror the highlighted chunk in the sharded view -->
    <rect x="180" y="120" width="60" height="60" fill="#c93d80" fill-opacity="0.55" stroke="#c93d80" stroke-width="2"/>

    <g font-size="10" fill="#4a4440" font-family="ui-monospace, monospace" text-anchor="middle">
      <text x="30"  y="35">c/0/0</text>
      <text x="210" y="35">c/0/3</text>
      <text x="30"  y="215">c/3/0</text>
      <text x="210" y="215">c/3/3</text>
    </g>

  </g>

  <!-- Center arrow -->
  <g transform="translate(290, 165)">
    <text x="70" y="-10" text-anchor="middle" font-size="13" fill="#c93d80" font-weight="700" font-style="italic">sharding</text>
    <path d="M0 5 L 140 5" stroke="#c93d80" stroke-width="2.5" fill="none" marker-end="url(#arrow-accent)"/>
  </g>

  <!-- Right: sharded layout, each shard is a single file containing chunks -->
  <g transform="translate(450, 60)">
    <text x="120" y="-22" text-anchor="middle" font-size="13" fill="#4a4440" font-weight="700" letter-spacing="0.08em">SHARDED</text>

    <!-- Internal chunk subdivisions: light dashed lines (NOT file boundaries) -->
    <g fill="white" stroke="#c0c0c0" stroke-width="0.6" stroke-dasharray="3,2">
      <rect x="0"   y="0"   width="60" height="60"/>
      <rect x="60"  y="0"   width="60" height="60"/>
      <rect x="120" y="0"   width="60" height="60"/>
      <rect x="180" y="0"   width="60" height="60"/>
      <rect x="0"   y="60"  width="60" height="60"/>
      <rect x="60"  y="60"  width="60" height="60"/>
      <rect x="120" y="60"  width="60" height="60"/>
      <rect x="180" y="60"  width="60" height="60"/>
      <rect x="0"   y="120" width="60" height="60"/>
      <rect x="60"  y="120" width="60" height="60"/>
      <rect x="120" y="120" width="60" height="60"/>
      <rect x="180" y="120" width="60" height="60"/>
      <rect x="0"   y="180" width="60" height="60"/>
      <rect x="60"  y="180" width="60" height="60"/>
      <rect x="120" y="180" width="60" height="60"/>
      <rect x="180" y="180" width="60" height="60"/>
    </g>

    <!-- Shard file boundaries: same thickness as the traditional file boundaries -->
    <g fill="none" stroke="#1a1614" stroke-width="2">
      <rect x="0"   y="0"   width="120" height="120"/>
      <rect x="120" y="0"   width="120" height="120"/>
      <rect x="0"   y="120" width="120" height="120"/>
    </g>

    <!-- Highlighted shard with one selected chunk -->
    <rect x="120" y="120" width="120" height="120" fill="rgba(201, 61, 128, 0.10)" stroke="#c93d80" stroke-width="2"/>
    <rect x="180" y="120" width="60" height="60" fill="#c93d80" fill-opacity="0.55" stroke="#c93d80" stroke-width="0.6" stroke-dasharray="3,2"/>

    <!-- Shard labels -->
    <g font-size="9" fill="#4a4440" font-family="ui-monospace, monospace" text-anchor="middle">
      <text x="60"  y="115">shard_0</text>
      <text x="180" y="115">shard_1</text>
      <text x="60"  y="235">shard_2</text>
      <text x="180" y="235" fill="#c93d80" font-weight="700">shard_3</text>
    </g>

  </g>

  <!-- ============================================================ -->
  <!-- Storage view: what one file actually looks like on disk      -->
  <!-- ============================================================ -->

  <!-- LEFT: a single chunk file = one opaque blob; ghosted stack hints at "many of these" -->
  <g>
    <text x="150" y="320" text-anchor="middle" font-size="11" fill="#4a4440" font-weight="700" letter-spacing="0.08em">ON-DISK FILE</text>

    <!-- Ghost layers (drawn first so the main strip sits on top) -->
    <g fill="white" stroke="#b0b0b0" stroke-width="1">
      <rect x="133" y="343" width="50" height="40"/>
      <rect x="129" y="339" width="50" height="40"/>
    </g>

    <!-- Main strip: the highlighted chunk c/2/3 -->
    <rect x="125" y="335" width="50" height="40" fill="#c93d80" fill-opacity="0.55" stroke="#1a1614" stroke-width="2"/>

    <g font-size="10" fill="#4a4440" font-family="ui-monospace, monospace" text-anchor="middle">
      <text x="150" y="400">c/2/3</text>
    </g>

    <text x="150" y="420" text-anchor="middle" font-size="14" fill="#1a1614" font-weight="700">× 16 files</text>
    <text x="150" y="437" text-anchor="middle" font-size="11" fill="#9a9490" font-style="italic">one chunk per file</text>
  </g>

  <!-- RIGHT: a single shard file = N chunk payloads packed contiguously + index footer -->
  <g>
    <text x="570" y="320" text-anchor="middle" font-size="11" fill="#4a4440" font-weight="700" letter-spacing="0.08em">ON-DISK FILE</text>

    <!-- Ghost layer behind (one is enough — only 4 shards total) -->
    <rect x="444" y="339" width="260" height="40" fill="white" stroke="#b0b0b0" stroke-width="1"/>

    <!-- Outer file boundary (single object) -->
    <rect x="440" y="335" width="260" height="40" fill="white" stroke="#1a1614" stroke-width="2"/>

    <!-- Internal chunk-payload dividers: dashed, mirrors the array view's internal-chunk styling -->
    <g stroke="#c0c0c0" stroke-width="0.6" stroke-dasharray="3,2">
      <line x1="490" y1="335" x2="490" y2="375"/>
      <line x1="540" y1="335" x2="540" y2="375"/>
      <line x1="590" y1="335" x2="590" y2="375"/>
    </g>

    <!-- Highlighted chunk payload c/2/3 (matches the highlighted array cell) -->
    <rect x="490" y="335" width="50" height="40" fill="#c93d80" fill-opacity="0.55"/>

    <!-- Index footer: solid divider marks the boundary between payloads and metadata -->
    <line x1="640" y1="335" x2="640" y2="375" stroke="#1a1614" stroke-width="1.5"/>
    <rect x="640" y="335" width="60" height="40" fill="#faf4e8"/>

    <!-- Index entries: 4 small cells = 4 (offset, length) records -->
    <g fill="white" stroke="#9a9490" stroke-width="0.6">
      <rect x="645" y="349" width="12" height="12"/>
      <rect x="658" y="349" width="12" height="12"/>
      <rect x="671" y="349" width="12" height="12"/>
      <rect x="684" y="349" width="12" height="12"/>
    </g>

    <!-- Labels below the strip -->
    <g font-size="10" fill="#4a4440" font-family="ui-monospace, monospace" text-anchor="middle">
      <text x="465" y="400">c/2/2</text>
      <text x="515" y="400" fill="#c93d80" font-weight="700">c/2/3</text>
      <text x="565" y="400">c/3/2</text>
      <text x="615" y="400">c/3/3</text>
      <text x="670" y="400" font-style="italic" fill="#9a9490">index</text>
    </g>

    <text x="570" y="420" text-anchor="middle" font-size="14" fill="#1a1614" font-weight="700">× 4 files</text>
    <text x="570" y="437" text-anchor="middle" font-size="11" fill="#c93d80" font-style="italic">packed chunks + index → byte-range reads</text>
  </g>
</svg>
