<svg xmlns="http://www.w3.org/2000/svg" viewBox="0 0 720 360" font-family="ui-sans-serif, system-ui, sans-serif">
  <defs>
    <marker id="arrow-accent" viewBox="0 0 10 10" refX="9" refY="5" markerWidth="6" markerHeight="6" orient="auto">
      <path d="M0 0 L10 5 L0 10 z" fill="#c93d80"/>
    </marker>
  </defs>

  <!-- Left: traditional layout, every chunk is its own file -->
  <g transform="translate(30, 60)">
    <text x="120" y="-22" text-anchor="middle" font-size="13" fill="#4a4440" font-weight="700" letter-spacing="0.08em">TRADITIONAL</text>

    <g fill="white" stroke="#1a1614" stroke-width="2">
      <rect x="0"   y="0"   width="60" height="60"/>
      <rect x="60"  y="0"   width="60" height="60"/>
      <rect x="120" y="0"   width="60" height="60"/>
      <rect x="180" y="0"   width="60" height="60"/>
      <rect x="0"   y="60"  width="60" height="60"/>
      <rect x="60"  y="60"  width="60" height="60"/>
      <rect x="120" y="60"  width="60" height="60"/>
      <rect x="180" y="60"  width="60" height="60"/>
      <rect x="0"   y="120" width="60" height="60"/>
      <rect x="60"  y="120" width="60" height="60"/>
      <rect x="120" y="120" width="60" height="60"/>
      <rect x="180" y="120" width="60" height="60"/>
      <rect x="0"   y="180" width="60" height="60"/>
      <rect x="60"  y="180" width="60" height="60"/>
      <rect x="120" y="180" width="60" height="60"/>
      <rect x="180" y="180" width="60" height="60"/>
    </g>

    <g font-size="10" fill="#4a4440" font-family="ui-monospace, monospace" text-anchor="middle">
      <text x="30"  y="35">c/0/0</text>
      <text x="210" y="35">c/0/3</text>
      <text x="30"  y="215">c/3/0</text>
      <text x="210" y="215">c/3/3</text>
    </g>

    <text x="120" y="270" text-anchor="middle" font-size="14" fill="#1a1614" font-weight="700">16 storage objects</text>
    <text x="120" y="288" text-anchor="middle" font-size="11" fill="#9a9490" font-style="italic">one file per chunk</text>
  </g>

  <!-- Center arrow -->
  <g transform="translate(290, 165)">
    <text x="70" y="-10" text-anchor="middle" font-size="13" fill="#c93d80" font-weight="700" font-style="italic">sharding</text>
    <path d="M0 5 L 140 5" stroke="#c93d80" stroke-width="2.5" fill="none" marker-end="url(#arrow-accent)"/>
  </g>

  <!-- Right: sharded layout, each shard is a single file containing chunks -->
  <g transform="translate(450, 60)">
    <text x="120" y="-22" text-anchor="middle" font-size="13" fill="#4a4440" font-weight="700" letter-spacing="0.08em">SHARDED</text>

    <!-- Internal chunk subdivisions: light dashed lines (NOT file boundaries) -->
    <g fill="white" stroke="#c0c0c0" stroke-width="0.6" stroke-dasharray="3,2">
      <rect x="0"   y="0"   width="60" height="60"/>
      <rect x="60"  y="0"   width="60" height="60"/>
      <rect x="120" y="0"   width="60" height="60"/>
      <rect x="180" y="0"   width="60" height="60"/>
      <rect x="0"   y="60"  width="60" height="60"/>
      <rect x="60"  y="60"  width="60" height="60"/>
      <rect x="120" y="60"  width="60" height="60"/>
      <rect x="180" y="60"  width="60" height="60"/>
      <rect x="0"   y="120" width="60" height="60"/>
      <rect x="60"  y="120" width="60" height="60"/>
      <rect x="120" y="120" width="60" height="60"/>
      <rect x="180" y="120" width="60" height="60"/>
      <rect x="0"   y="180" width="60" height="60"/>
      <rect x="60"  y="180" width="60" height="60"/>
      <rect x="120" y="180" width="60" height="60"/>
      <rect x="180" y="180" width="60" height="60"/>
    </g>

    <!-- Shard file boundaries: same thickness as the traditional file boundaries -->
    <g fill="none" stroke="#1a1614" stroke-width="2">
      <rect x="0"   y="0"   width="120" height="120"/>
      <rect x="120" y="0"   width="120" height="120"/>
      <rect x="0"   y="120" width="120" height="120"/>
    </g>

    <!-- Highlighted shard with one selected chunk -->
    <rect x="120" y="120" width="120" height="120" fill="rgba(201, 61, 128, 0.10)" stroke="#c93d80" stroke-width="2"/>
    <rect x="180" y="120" width="60" height="60" fill="#c93d80" fill-opacity="0.55" stroke="#c93d80" stroke-width="0.6" stroke-dasharray="3,2"/>

    <!-- Shard labels -->
    <g font-size="9" fill="#4a4440" font-family="ui-monospace, monospace" text-anchor="middle">
      <text x="60"  y="115">shard_0</text>
      <text x="180" y="115">shard_1</text>
      <text x="60"  y="235">shard_2</text>
      <text x="180" y="235" fill="#c93d80" font-weight="700">shard_3</text>
    </g>

    <text x="120" y="270" text-anchor="middle" font-size="14" fill="#1a1614" font-weight="700">4 storage objects</text>
    <text x="120" y="288" text-anchor="middle" font-size="11" fill="#c93d80" font-style="italic">byte-range read into one chunk</text>
  </g>
</svg>
